<?xml version="1.0" standalone="no"?>
<!DOCTYPE svg PUBLIC "-//W3C//DTD SVG 20010904//EN"
 "http://www.w3.org/TR/2001/REC-SVG-20010904/DTD/svg10.dtd">
<svg version="1.0" xmlns="http://www.w3.org/2000/svg"
 width="260.000000pt" height="260.000000pt" viewBox="0 0 260.000000 260.000000"
 preserveAspectRatio="xMidYMid meet">
<metadata>
Created by potrace 1.14, written by Peter Selinger 2001-2017
</metadata>
<g transform="translate(0.000000,260.000000) scale(0.100000,-0.100000)"
fill="#000000" stroke="none">
<path d="M345 2585 c-154 -36 -262 -138 -321 -301 l-24 -65 0 -912 c0 -974 -1
-953 50 -1060 29 -62 110 -150 167 -184 24 -14 71 -34 105 -45 60 -18 101 -19
981 -18 1000 2 961 0 1070 58 59 32 139 117 173 183 54 108 54 98 51 1084 -3
994 1 925 -59 1044 -52 102 -183 198 -301 220 -77 14 -1831 11 -1892 -4z m394
-704 c53 -29 65 -59 161 -416 18 -66 35 -126 39 -132 4 -7 40 74 80 180 41
105 89 227 109 269 30 68 40 80 78 98 72 35 177 25 236 -22 29 -24 55 -89 191
-471 20 -59 30 -61 40 -6 17 87 101 392 120 429 30 60 82 90 160 90 108 0 177
-63 178 -163 1 -41 -145 -566 -233 -840 -33 -105 -47 -135 -76 -162 -59 -58
-173 -68 -254 -23 -59 34 -67 49 -153 298 -78 226 -107 305 -115 313 -4 4 -37
-79 -74 -185 -37 -106 -70 -200 -73 -208 -3 -8 -7 -19 -8 -25 -9 -37 -51 -126
-72 -154 -79 -103 -273 -88 -332 27 -19 38 -99 285 -141 437 -12 44 -49 170
-82 280 -75 250 -76 308 -9 369 45 41 168 50 230 17z"/>
</g>
</svg>
