<svg width="17" height="16" viewBox="0 0 17 16" fill="none" xmlns="http://www.w3.org/2000/svg">
<rect width="16" height="16" fill="white"/>
<path fill-rule="evenodd" clip-rule="evenodd" d="M2.24887 0.0526712C1.81447 0.139811 1.46239 0.291487 1.14007 0.530206C0.878024 0.724303 0.801868 0.800854 0.586002 1.08717C0.369846 1.37385 0.216989 1.6852 0.0863851 2.1049L0 2.38245V7.96832V13.5542L0.0725007 13.8416C0.201277 14.3521 0.43122 14.7824 0.77644 15.159C1.12679 15.5411 1.54573 15.7824 2.10031 15.9215L2.40493 15.9978L7.98437 15.9998C12.8671 16.0014 13.5928 15.9955 13.7961 15.9523C14.9216 15.7129 15.7241 14.8674 15.9453 13.6881C15.9965 13.4151 16.0007 12.9818 15.9999 8.06546C15.9992 3.99652 15.9896 2.67272 15.9592 2.45945C15.7787 1.19452 14.8886 0.245861 13.6995 0.0511168C13.2774 -0.0180184 2.59383 -0.0165612 2.24887 0.0526712ZM3.55064 4.32698C3.32573 4.38815 3.21417 4.44938 3.07905 4.58584C2.9082 4.75834 2.82974 4.93984 2.81361 5.19967C2.79758 5.45788 2.81887 5.55684 3.07151 6.3978C3.2244 6.90668 3.53679 7.97612 3.70526 8.56738C4.10592 9.9734 4.46192 11.0771 4.57751 11.2716C4.95483 11.9064 6.01515 12.0082 6.55645 11.4616C6.70116 11.3154 6.84957 10.9977 7.05556 10.3927C7.25728 9.80035 7.71412 8.49352 7.87336 8.05329C7.94115 7.86592 7.98588 7.78141 8.00188 7.81042C8.03314 7.86709 8.3784 8.83787 8.81811 10.1055C9.00653 10.6487 9.19046 11.1442 9.22686 11.2065C9.4863 11.651 9.99836 11.8705 10.5815 11.7871C10.9403 11.7358 11.2539 11.5373 11.4135 11.2604C11.4977 11.1145 11.7683 10.2581 12.152 8.92358C13.2015 5.27285 13.1383 5.51206 13.1232 5.24824C13.1063 4.95127 13.0086 4.73884 12.7996 4.54426C12.619 4.3762 12.3784 4.3 12.0247 4.29881C11.6577 4.29761 11.444 4.36988 11.2296 4.56777C10.9763 4.80153 10.9913 4.75792 10.4956 6.70542C10.3553 7.2565 10.3099 7.44211 10.2274 7.80213C10.2177 7.84429 10.203 7.87188 10.1946 7.8634C10.1862 7.85495 10.094 7.60185 9.98983 7.30099C9.88565 7.00013 9.76232 6.65199 9.71579 6.52732C9.66927 6.40265 9.5664 6.1185 9.48717 5.89588C9.2562 5.24678 9.1516 4.9842 9.05248 4.80467C8.88334 4.49825 8.65172 4.3601 8.21791 4.30687C7.8749 4.2648 7.50165 4.3295 7.31099 4.46408C7.07114 4.63334 6.99267 4.79794 6.38163 6.41399C5.86672 7.77574 5.81073 7.91129 5.78357 7.8623C5.76943 7.83675 5.70652 7.62066 5.6438 7.38208C5.58108 7.14349 5.4876 6.79528 5.43614 6.60828C5.38464 6.42127 5.26917 5.98648 5.17952 5.6421C5.08986 5.29769 4.98087 4.94482 4.93726 4.85791C4.77722 4.53898 4.54205 4.37526 4.15232 4.3114C3.88345 4.26733 3.75811 4.2706 3.55064 4.32698Z" fill="#32ACE0"/>
<circle cx="14.5" cy="2.5" r="2.5" fill="#FF0000"/>
</svg>
